<?xml version="1.0" encoding="UTF-8" standalone="no"?>
<svg
   width="431"
   height="413"
   viewBox="0 0 431 413"
   version="1.1"
   id="svg1"
   sodipodi:docname="logo_filled.svg"
   inkscape:version="1.4.2 (ebf0e94, 2025-05-08)"
   inkscape:export-filename="logo_filled_1.svg"
   inkscape:export-xdpi="96"
   inkscape:export-ydpi="96"
   xmlns:inkscape="http://www.inkscape.org/namespaces/inkscape"
   xmlns:sodipodi="http://sodipodi.sourceforge.net/DTD/sodipodi-0.dtd"
   xmlns="http://www.w3.org/2000/svg"
   xmlns:svg="http://www.w3.org/2000/svg">
  <defs
     id="defs1" />
  <sodipodi:namedview
     id="namedview1"
     pagecolor="#505050"
     bordercolor="#eeeeee"
     borderopacity="1"
     inkscape:showpageshadow="0"
     inkscape:pageopacity="0"
     inkscape:pagecheckerboard="0"
     inkscape:deskcolor="#505050"
     inkscape:zoom="1.2207437"
     inkscape:cx="195.37271"
     inkscape:cy="206.02195"
     inkscape:window-width="1500"
     inkscape:window-height="963"
     inkscape:window-x="0"
     inkscape:window-y="0"
     inkscape:window-maximized="1"
     inkscape:current-layer="svg1" />
  <g
     id="g1"
     style="fill:#808080">
    <path
       id="path1"
       style="fill:#000000"
       d="M 215.85547 6.1933594 C 206.47297 6.2821094 197.07461 8.4150781 188.84961 12.580078 C 180.24438 16.933386 171.83956 24.522777 164.41406 34.966797 L 73.792969 97.185547 L 73.78125 97.193359 C 73.350519 97.478922 72.922377 97.760503 72.5 98.039062 C 71.298159 98.832904 70.578708 99.41221 69.435547 100.17773 L 57.330078 108.48828 L 57.392578 108.57812 C 37.562836 122.90976 28.226327 133.19786 20.369141 148.96094 C 13.929141 161.86094 10.919531 174.59961 10.269531 191.59961 C 9.4695312 212.58961 9.3303906 212.05 31.900391 271.5 C 38.580391 289.1 45.220391 306.65 46.650391 310.5 C 58.550391 342.39 65.859766 358.37 72.509766 367 C 88.419766 387.64 109.77 401.11953 133.5 405.51953 C 141.43284 406.98936 152.59879 407.30529 161.15039 406.54688 L 161.16602 406.54688 L 271.16992 406.55273 L 271.17578 406.55273 C 276.35279 406.96966 282.8241 406.85926 289.00977 406.49805 C 289.41679 406.47291 289.82009 406.43767 290.21875 406.38477 C 293.67537 406.14859 297.31619 405.95221 299.85938 405.4707 C 318.23938 401.9807 333.56961 393.96953 348.09961 380.26953 C 365.22961 364.10953 368.49063 357.57 393.89062 288.5 C 397.73062 278.05 404.76906 259.15 409.53906 246.5 C 423.21906 210.18 423.18922 210.29 422.69922 192 C 422.38922 180.28 421.77039 174.56984 420.15039 168.58984 C 417.06039 157.22984 409.28984 141.7 402.33984 133 C 390.60984 118.34 383.4807 113.16086 299.2207 58.130859 C 269.2707 38.570859 265.86016 35.980703 263.16016 30.720703 C 259.93016 24.440703 250.60953 15.920312 242.76953 12.070312 C 234.60453 8.0603125 225.23797 6.1046094 215.85547 6.1933594 z " />
  </g>
</svg>
