<?xml version="1.0" encoding="UTF-8" standalone="no"?>
<svg width="431" height="413" viewBox="0 0 431 413" version="1.1" id="svg1" xmlns="http://www.w3.org/2000/svg" xmlns:svg="http://www.w3.org/2000/svg">
    <defs id="defs1"/>
    <g id="g1" style="fill:#808080">
        <path id="path1" style="fill:#000000" d="m 215.85547,6.1933594 c -9.3825,0.08875 -18.78086,2.2217187 -27.00586,6.3867186 -8.60523,4.353308 -17.01005,11.942699 -24.43555,22.386719 l -90.621091,62.21875 -0.01172,0.0078 c -0.430731,0.285563 -0.858873,0.567144 -1.28125,0.845703 -1.201841,0.793842 -1.921292,1.373148 -3.064453,2.13867 l -12.105469,8.31055 0.0625,0.0898 c -19.829742,14.33164 -29.166251,24.61974 -37.023437,40.38282 -6.44,12.9 -9.44961,25.63867 -10.09961,42.63867 -0.7999998,20.99 -0.9391404,20.45039 21.63086,79.90039 6.68,17.6 13.32,35.15 14.75,39 11.9,31.89 19.209375,47.87 25.859375,56.5 15.91,20.64 37.260235,34.11953 60.990235,38.51953 7.93284,1.46983 19.09879,1.78576 27.65039,1.02735 h 0.0156 l 110.0039,0.006 h 0.006 c 5.17701,0.41693 11.64832,0.30653 17.83399,-0.0547 0.40702,-0.0251 0.81032,-0.0604 1.20898,-0.11328 3.45662,-0.23618 7.09744,-0.43256 9.64063,-0.91407 18.38,-3.49 33.71023,-11.50117 48.24023,-25.20117 17.13,-16.16 20.39102,-22.69953 45.79101,-91.76953 3.84,-10.45 10.87844,-29.35 15.64844,-42 13.68,-36.32 13.65016,-36.21 13.16016,-54.5 -0.31,-11.72 -0.92883,-17.43016 -2.54883,-23.41016 -3.09,-11.36 -10.86055,-26.88984 -17.81055,-35.58984 -11.73,-14.66 -18.85914,-19.83914 -103.11914,-74.869143 -29.95,-19.56 -33.36054,-22.150156 -36.06054,-27.410156 -3.23,-6.28 -12.55063,-14.800391 -20.39063,-18.650391 -8.165,-4.0099995 -17.53156,-5.9657026 -26.91406,-5.8769526 z"/>
    </g>
</svg>
