<svg xmlns="http://www.w3.org/2000/svg" width="431" height="413" viewBox="0 0 431 413">
<g>
<path d="M 133.50 405.52 C109.77,401.12 88.42,387.64 72.51,367.00 C65.86,358.37 58.55,342.39 46.65,310.50 C45.22,306.65 38.58,289.10 31.90,271.50 C9.33,212.05 9.47,212.59 10.27,191.60 C10.92,174.60 13.93,161.86 20.37,148.96 C30.05,129.54 41.04,118.82 72.50,98.04 C78.55,94.05 85.65,89.21 88.27,87.29 C93.86,83.20 94.82,83.57 97.51,90.76 C100.38,98.47 109.47,121.70 120.70,150.00 C133.67,182.70 140.59,200.37 147.53,218.50 C150.48,226.20 157.23,243.52 162.53,257.00 C167.83,270.48 173.43,284.88 174.98,289.00 C176.53,293.12 184.34,312.76 192.33,332.63 C200.33,352.51 207.18,370.45 207.57,372.50 C208.26,376.19 208.13,376.37 199.25,385.02 C188.22,395.76 178.55,402.41 170.14,405.02 C162.60,407.37 144.78,407.61 133.50,405.52 ZM 264.95 405.64 C258.60,403.93 253.37,400.46 249.66,395.50 C247.92,393.18 243.97,388.17 240.88,384.36 C234.63,376.65 229.00,367.28 229.00,364.56 C229.00,363.59 235.02,356.65 242.38,349.14 C249.74,341.64 256.48,334.08 257.36,332.34 C260.05,327.03 260.36,319.34 258.20,311.50 C257.14,307.65 251.44,292.12 245.54,277.00 C239.63,261.88 231.52,240.95 227.51,230.50 C203.76,168.53 200.93,161.26 180.42,109.44 C160.27,58.53 160.60,59.55 161.25,51.46 C162.36,37.64 175.27,19.45 188.85,12.58 C205.30,4.25 226.44,4.05 242.77,12.07 C250.61,15.92 259.93,24.44 263.16,30.72 C265.86,35.98 269.27,38.57 299.22,58.13 C383.48,113.16 390.61,118.34 402.34,133.00 C409.29,141.70 417.06,157.23 420.15,168.59 C421.77,174.57 422.39,180.28 422.70,192.00 C423.19,210.29 423.22,210.18 409.54,246.50 C404.77,259.15 397.73,278.05 393.89,288.50 C368.49,357.57 365.23,364.11 348.10,380.27 C333.57,393.97 318.24,401.98 299.86,405.47 C290.30,407.28 271.38,407.37 264.95,405.64 Z" fill="rgba(0,0,0,1)"/>
</g>
</svg>